<mxfile host="app.diagrams.net" modified="2024-02-06T13:21:49.354Z" agent="Mozilla/5.0 (Windows NT 10.0; Win64; x64) AppleWebKit/537.36 (KHTML, like Gecko) Chrome/121.0.0.0 Safari/537.36 Edg/121.0.0.0" etag="avlrv_IEOrOO87BL2toc" version="23.1.1" type="google">
  <diagram name="Pagina-1" id="aAno4O4-GMGpdeOjlcYK">
    <mxGraphModel grid="1" page="1" gridSize="10" guides="1" tooltips="1" connect="1" arrows="1" fold="1" pageScale="1" pageWidth="827" pageHeight="1169" math="0" shadow="0">
      <root>
        <mxCell id="0" />
        <mxCell id="1" parent="0" />
        <mxCell id="Juwblw9oVWeKGs1R8AEu-43" value="" style="rounded=0;whiteSpace=wrap;html=1;fillStyle=auto;fillColor=default;strokeColor=default;" vertex="1" parent="1">
          <mxGeometry x="269" y="180" width="201" height="220" as="geometry" />
        </mxCell>
        <mxCell id="Juwblw9oVWeKGs1R8AEu-44" value="" style="rounded=1;whiteSpace=wrap;html=1;fontSize=16;fillColor=none;arcSize=5;" vertex="1" parent="1">
          <mxGeometry x="300" y="190" width="150" height="200" as="geometry" />
        </mxCell>
        <mxCell id="Juwblw9oVWeKGs1R8AEu-49" value="ROS2" style="text;html=1;strokeColor=none;fillColor=none;align=center;verticalAlign=middle;whiteSpace=wrap;rounded=0;fontSize=16;" vertex="1" parent="1">
          <mxGeometry x="389" y="192.5" width="60" height="30" as="geometry" />
        </mxCell>
        <mxCell id="Juwblw9oVWeKGs1R8AEu-50" value="Docker Container" style="text;html=1;strokeColor=none;fillColor=none;align=center;verticalAlign=middle;whiteSpace=wrap;rounded=0;fontSize=16;rotation=-90;" vertex="1" parent="1">
          <mxGeometry x="209" y="240" width="150" height="30" as="geometry" />
        </mxCell>
        <mxCell id="Juwblw9oVWeKGs1R8AEu-51" value="" style="endArrow=classic;startArrow=classic;html=1;rounded=0;fontSize=12;startSize=8;endSize=8;curved=1;entryX=0.5;entryY=0;entryDx=0;entryDy=0;" edge="1" parent="1" target="Juwblw9oVWeKGs1R8AEu-76">
          <mxGeometry width="50" height="50" relative="1" as="geometry">
            <mxPoint x="354" y="160" as="sourcePoint" />
            <mxPoint x="500" y="160" as="targetPoint" />
          </mxGeometry>
        </mxCell>
        <mxCell id="Juwblw9oVWeKGs1R8AEu-54" value="UDP&amp;nbsp;2020&lt;span style=&quot;background-color: transparent; color: rgb(255, 255, 255); font-family: source-code-pro, Menlo, Monaco, Consolas, &amp;quot;Courier New&amp;quot;, monospace; font-size: 0.85em; text-align: left;&quot;&gt;&lt;/span&gt;" style="text;html=1;strokeColor=none;fillColor=none;align=center;verticalAlign=middle;whiteSpace=wrap;rounded=0;fontSize=5;" vertex="1" parent="1">
          <mxGeometry x="319" y="200" width="30" height="15" as="geometry" />
        </mxCell>
        <mxCell id="Juwblw9oVWeKGs1R8AEu-57" value="UDP&amp;nbsp;2019&lt;span style=&quot;background-color: transparent; color: rgb(255, 255, 255); font-family: source-code-pro, Menlo, Monaco, Consolas, &amp;quot;Courier New&amp;quot;, monospace; font-size: 0.85em; text-align: left;&quot;&gt;&lt;/span&gt;" style="text;html=1;strokeColor=none;fillColor=none;align=center;verticalAlign=middle;whiteSpace=wrap;rounded=0;fontSize=5;" vertex="1" parent="1">
          <mxGeometry x="319" y="160" width="30" height="15" as="geometry" />
        </mxCell>
        <mxCell id="Juwblw9oVWeKGs1R8AEu-63" value="&lt;span style=&quot;font-size: 12px;&quot;&gt;PX4 ROS API&lt;br&gt;&lt;/span&gt;" style="rounded=1;whiteSpace=wrap;html=1;fontSize=16;" vertex="1" parent="1">
          <mxGeometry x="319" y="310" width="70" height="60" as="geometry" />
        </mxCell>
        <mxCell id="Juwblw9oVWeKGs1R8AEu-66" value="" style="endArrow=classic;startArrow=classic;html=1;rounded=0;fontSize=12;startSize=8;endSize=8;curved=1;exitX=0.5;exitY=1;exitDx=0;exitDy=0;entryX=0.5;entryY=0;entryDx=0;entryDy=0;endFill=1;" edge="1" parent="1" source="Juwblw9oVWeKGs1R8AEu-76" target="Juwblw9oVWeKGs1R8AEu-63">
          <mxGeometry width="50" height="50" relative="1" as="geometry">
            <mxPoint x="353.74" y="276" as="sourcePoint" />
            <mxPoint x="353.74" y="342" as="targetPoint" />
            <Array as="points">
              <mxPoint x="354" y="290" />
            </Array>
          </mxGeometry>
        </mxCell>
        <mxCell id="Juwblw9oVWeKGs1R8AEu-73" value="" style="endArrow=classic;startArrow=none;html=1;rounded=0;fontSize=12;startSize=8;endSize=8;curved=1;entryX=0.5;entryY=1;entryDx=0;entryDy=0;exitX=0.5;exitY=0;exitDx=0;exitDy=0;startFill=0;" edge="1" parent="1" target="Juwblw9oVWeKGs1R8AEu-63">
          <mxGeometry width="50" height="50" relative="1" as="geometry">
            <mxPoint x="354" y="410" as="sourcePoint" />
            <mxPoint x="330" y="330" as="targetPoint" />
          </mxGeometry>
        </mxCell>
        <mxCell id="Juwblw9oVWeKGs1R8AEu-76" value="&lt;font style=&quot;font-size: 12px;&quot;&gt;microRTPS&lt;br&gt;agent&lt;br&gt;#1&lt;/font&gt;" style="rounded=1;whiteSpace=wrap;html=1;fontSize=16;" vertex="1" parent="1">
          <mxGeometry x="319" y="216" width="70" height="60" as="geometry" />
        </mxCell>
      </root>
    </mxGraphModel>
  </diagram>
</mxfile>
